<svg width="24" height="24" viewBox="0 0 24 24" fill="none" xmlns="http://www.w3.org/2000/svg">
<mask id="mask0_3_10689" style="mask-type:alpha" maskUnits="userSpaceOnUse" x="0" y="0" width="24" height="24">
<rect width="24" height="24" fill="#D9D9D9"/>
</mask>
<g mask="url(#mask0_3_10689)">
<path d="M14 11C14.8333 11 15.5417 10.7083 16.125 10.125C16.7083 9.54167 17 8.83333 17 8C17 7.16667 16.7083 6.45833 16.125 5.875C15.5417 5.29167 14.8333 5 14 5C13.1667 5 12.4583 5.29167 11.875 5.875C11.2917 6.45833 11 7.16667 11 8C11 8.83333 11.2917 9.54167 11.875 10.125C12.4583 10.7083 13.1667 11 14 11ZM8 15.75C8.75 14.8667 9.65 14.1873 10.7 13.712C11.75 13.2373 12.85 13 14 13C15.15 13 16.25 13.2373 17.3 13.712C18.35 14.1873 19.25 14.8667 20 15.75V4H8V15.75ZM8 18C7.45 18 6.97933 17.8043 6.588 17.413C6.196 17.021 6 16.55 6 16V4C6 3.45 6.196 2.979 6.588 2.587C6.97933 2.19567 7.45 2 8 2H20C20.55 2 21.021 2.19567 21.413 2.587C21.8043 2.979 22 3.45 22 4V16C22 16.55 21.8043 17.021 21.413 17.413C21.021 17.8043 20.55 18 20 18H8ZM4 22C3.45 22 2.97933 21.8043 2.588 21.413C2.196 21.021 2 20.55 2 20V6H4V20H18V22H4ZM14 9C13.7167 9 13.4793 8.904 13.288 8.712C13.096 8.52067 13 8.28333 13 8C13 7.71667 13.096 7.479 13.288 7.287C13.4793 7.09567 13.7167 7 14 7C14.2833 7 14.521 7.09567 14.713 7.287C14.9043 7.479 15 7.71667 15 8C15 8.28333 14.9043 8.52067 14.713 8.712C14.521 8.904 14.2833 9 14 9ZM10.7 16H17.3C16.8167 15.6667 16.2917 15.4167 15.725 15.25C15.1583 15.0833 14.5833 15 14 15C13.4167 15 12.8417 15.0833 12.275 15.25C11.7083 15.4167 11.1833 15.6667 10.7 16Z" fill="white"/>
</g>
</svg>
